<svg xmlns="http://www.w3.org/2000/svg" viewBox="0 0 512 512" width="512" height="512">
  <!-- Capsule/pod: agent safely encapsulated -->
  <defs>
    <linearGradient id="g7" x1="0" y1="0" x2="0" y2="1">
      <stop offset="0%" stop-color="#22D3EE"/>
      <stop offset="100%" stop-color="#0891B2"/>
    </linearGradient>
    <linearGradient id="g7b" x1="0" y1="0" x2="0" y2="1">
      <stop offset="0%" stop-color="#164E63"/>
      <stop offset="100%" stop-color="#0E3A4A"/>
    </linearGradient>
  </defs>
  <!-- Capsule body -->
  <rect x="120" y="60" width="272" height="392" rx="136" fill="url(#g7b)" stroke="url(#g7)" stroke-width="6"/>
  <!-- Inner glow ring -->
  <rect x="145" y="85" width="222" height="342" rx="111" fill="none" stroke="#22D3EE" stroke-width="2" opacity="0.3"/>
  <!-- Circuit/connection lines -->
  <line x1="200" y1="160" x2="200" y2="200" stroke="#22D3EE" stroke-width="2" opacity="0.4"/>
  <line x1="312" y1="160" x2="312" y2="200" stroke="#22D3EE" stroke-width="2" opacity="0.4"/>
  <line x1="200" y1="340" x2="200" y2="380" stroke="#22D3EE" stroke-width="2" opacity="0.4"/>
  <line x1="312" y1="340" x2="312" y2="380" stroke="#22D3EE" stroke-width="2" opacity="0.4"/>
  <!-- Agent face -->
  <!-- Visor -->
  <path d="M190,220 Q190,195 256,195 Q322,195 322,220 L322,255 Q322,280 256,280 Q190,280 190,255 Z"
        fill="#083344" stroke="#22D3EE" stroke-width="3"/>
  <!-- Eyes -->
  <circle cx="230" cy="240" r="14" fill="#22D3EE"/>
  <circle cx="282" cy="240" r="14" fill="#22D3EE"/>
  <circle cx="230" cy="240" r="6" fill="#083344"/>
  <circle cx="282" cy="240" r="6" fill="#083344"/>
  <!-- Mouth/speaker grille -->
  <line x1="236" y1="310" x2="276" y2="310" stroke="#22D3EE" stroke-width="3" stroke-linecap="round"/>
  <line x1="242" y1="322" x2="270" y2="322" stroke="#22D3EE" stroke-width="2" stroke-linecap="round" opacity="0.6"/>
  <!-- Status indicator -->
  <circle cx="256" cy="130" r="10" fill="#34D399"/>
  <circle cx="256" cy="130" r="16" fill="none" stroke="#34D399" stroke-width="2" opacity="0.4"/>
</svg>