<svg xmlns="http://www.w3.org/2000/svg" viewBox="0 0 512 512" width="512" height="512">
  <!-- Code brackets { } containing agent eye -->
  <defs>
    <linearGradient id="g14" x1="0" y1="0" x2="1" y2="1">
      <stop offset="0%" stop-color="#10B981"/>
      <stop offset="100%" stop-color="#059669"/>
    </linearGradient>
  </defs>
  <rect x="0" y="0" width="512" height="512" rx="96" fill="#022C22"/>
  <!-- Left bracket { -->
  <path d="M180,120 Q140,120 140,160 L140,230 Q140,256 110,256 Q140,256 140,282 L140,352 Q140,392 180,392"
        fill="none" stroke="url(#g14)" stroke-width="16" stroke-linecap="round"/>
  <!-- Right bracket } -->
  <path d="M332,120 Q372,120 372,160 L372,230 Q372,256 402,256 Q372,256 372,282 L372,352 Q372,392 332,392"
        fill="none" stroke="url(#g14)" stroke-width="16" stroke-linecap="round"/>
  <!-- Agent "eye" in center -->
  <ellipse cx="256" cy="256" rx="55" ry="35" fill="none" stroke="#34D399" stroke-width="5"/>
  <circle cx="256" cy="256" r="16" fill="#34D399"/>
  <circle cx="264" cy="250" r="5" fill="#022C22"/>
  <!-- Scan beam -->
  <line x1="256" y1="200" x2="256" y2="215" stroke="#34D399" stroke-width="2" opacity="0.5"/>
  <line x1="256" y1="297" x2="256" y2="312" stroke="#34D399" stroke-width="2" opacity="0.5"/>
</svg>