<svg xmlns="http://www.w3.org/2000/svg" viewBox="0 0 512 512" width="512" height="512">
  <!-- Infinity symbol woven through a box: unlimited power, contained -->
  <defs>
    <linearGradient id="g24" x1="0" y1="0" x2="1" y2="0">
      <stop offset="0%" stop-color="#F59E0B"/>
      <stop offset="50%" stop-color="#EF4444"/>
      <stop offset="100%" stop-color="#8B5CF6"/>
    </linearGradient>
  </defs>
  <rect x="0" y="0" width="512" height="512" rx="96" fill="#0F0A1E"/>
  <!-- Box outline -->
  <rect x="100" y="140" width="312" height="232" rx="20" fill="none" stroke="#6B7280" stroke-width="4" opacity="0.4"/>
  <!-- Box header -->
  <line x1="100" y1="180" x2="412" y2="180" stroke="#6B7280" stroke-width="2" opacity="0.3"/>
  <circle cx="128" cy="160" r="6" fill="#EF4444" opacity="0.6"/>
  <circle cx="150" cy="160" r="6" fill="#F59E0B" opacity="0.6"/>
  <circle cx="172" cy="160" r="6" fill="#22C55E" opacity="0.6"/>
  <!-- Infinity symbol - weaving through box walls -->
  <path d="M80,256 Q80,190 160,190 Q240,190 256,256 Q272,322 352,322 Q432,322 432,256 Q432,190 352,190 Q272,190 256,256 Q240,322 160,322 Q80,322 80,256 Z"
        fill="none" stroke="url(#g24)" stroke-width="8" stroke-linecap="round"/>
  <!-- Glow on infinity -->
  <path d="M80,256 Q80,190 160,190 Q240,190 256,256 Q272,322 352,322 Q432,322 432,256 Q432,190 352,190 Q272,190 256,256 Q240,322 160,322 Q80,322 80,256 Z"
        fill="none" stroke="url(#g24)" stroke-width="16" stroke-linecap="round" opacity="0.15"/>
</svg>